<svg xmlns="http://www.w3.org/2000/svg" width="376.3513488769531" height="379.0540466308594" style=""><rect id="backgroundrect" width="100%" height="100%" x="0" y="0" fill="none" stroke="none"/>
 <defs>
  <filter height="200%" width="200%" y="-50%" x="-50%" id="svg_2_blur">
   <feGaussianBlur stdDeviation="0.5" in="SourceGraphic"/>
  </filter>
  <filter id="svg_3_blur">
   <feGaussianBlur stdDeviation="0.5" in="SourceGraphic"/>
  </filter>
  <filter id="svg_4_blur">
   <feGaussianBlur stdDeviation="0.5" in="SourceGraphic"/>
  </filter>
  <filter id="svg_7_blur">
   <feGaussianBlur stdDeviation="1.5" in="SourceGraphic"/>
  </filter>
 </defs>
 <g style="" class="currentLayer">
  <title>Layer 1</title>
  <path transform="rotate(45 187.675994873047,187.67599487304685) " filter="url(#svg_2_blur)" stroke="#000" id="svg_2" d="m55.67619,55.67619l264,0l0,264l-264,0l0,-264z" opacity="undefined" stroke-width="2" fill="#BBBBBB"/>
  <rect transform="rotate(45 187.67599487304688,186.17599487304685) " filter="url(#svg_3_blur)" opacity="0.68" id="svg_3" height="235" width="235" y="68.67620086669922" x="70.17619323730469" stroke="#000" fill="#A4FFFF"/>
  <rect filter="url(#svg_4_blur)" id="svg_4" height="265" width="265" y="48.67620086669922" x="55.17618942260742" stroke="#000" fill="#fff"/>
  <line filter="url(#svg_7_blur)" opacity="0.8" id="svg_7" y2="25.67620086669922" x2="196.27618408203125" y1="17.67620086669922" x1="204.27618408203125" stroke="#000" fill="none"/>
  <path stroke="#000" id="svg_19" d="m215.27684,28.17678l-8,8" filter="url(#svg_7_blur)" opacity="undefined" fill="none"/>
  <line filter="url(#svg_7_blur)" opacity="0.8" id="svg_20" y2="46.678951263427734" x2="218.27908325195312" y1="38.678951263427734" x1="226.27908325195312" stroke="#000" fill="none"/>
  <line filter="url(#svg_7_blur)" opacity="0.8" id="svg_21" y2="151.19265747070312" x2="321.79266357421875" y1="143.19265747070312" x1="329.79266357421875" stroke="#000" fill="none"/>
  <line filter="url(#svg_7_blur)" opacity="0.8" id="svg_22" y2="162.69415283203125" x2="333.7942199707031" y1="154.69415283203125" x1="341.7942199707031" stroke="#000" fill="none"/>
  <line filter="url(#svg_7_blur)" opacity="0.8" id="svg_23" y2="175.69546508789062" x2="345.7955322265625" y1="167.69546508789062" x1="353.7955322265625" stroke="#000" fill="none"/>
  <line filter="url(#svg_7_blur)" opacity="0.8" id="svg_24" y2="202.6994171142578" x2="19.753040313720703" y1="194.6994171142578" x1="27.753040313720703" stroke="#000" fill="none"/>
  <line filter="url(#svg_7_blur)" opacity="0.8" id="svg_25" y2="214.7009735107422" x2="32.25468063354492" y1="206.7009735107422" x1="40.25468063354492" stroke="#000" fill="none"/>
  <line filter="url(#svg_7_blur)" opacity="0.8" id="svg_26" y2="227.20262145996094" x2="44.25627136230469" y1="219.20262145996094" x1="52.25627136230469" stroke="#000" fill="none"/>
  <line stroke="#000" filter="url(#svg_7_blur)" opacity="0.8" id="svg_27" y2="322.71514892578125" x2="140.2688446044922" y1="314.71514892578125" x1="148.2688446044922" fill="none"/>
  <line filter="url(#svg_7_blur)" opacity="0.8" id="svg_28" y2="335.71685791015625" x2="154.77076721191406" y1="327.71685791015625" x1="162.77076721191406" stroke="#000" fill="none"/>
  <line filter="url(#svg_7_blur)" opacity="0.8" id="svg_29" y2="350.21875" x2="168.7725830078125" y1="342.21875" x1="176.7725830078125" stroke="#000" fill="none"/>
  
 <polyline fill="none" stroke="#000" stroke-width="0" stroke-dashoffset="" fill-rule="nonzero" marker-start="" marker-mid="" marker-end="" id="svg_1" points="130.0675618690164,105.13513152086891 129.39188620204845,105.81080718783679 129.39188620204845,107.83783418874052 132.77026453688802,119.99999619416295 132.77026453688802,128.7837798647458 134.12161587082386,135.54053653442494 134.79729153779175,136.89188786836073 134.79729153779175,138.24323920229656 135.4729672047597,138.24323920229656 136.1486428717276,138.9189148692645 137.49999420566343,140.2702662032003 138.17566987263132,140.94594187016824 140.20269687353505,140.94594187016824 144.2567508753425,141.62161753713613 148.9864805441179,142.29729320410402 155.74323721379704,143.64864453803986 165.8783722183157,142.97296887107197 171.95945322102693,140.94594187016824 178.04053422373812,139.5945905362324 182.09458822554558,138.24323920229656 186.14864222735304,135.54053653442494 188.17566922825682,132.16215819958538 188.8513448952247,130.81080686564954 186.82431789432098,128.7837798647458 183.44593955948142,127.43242853080997 174.66215588889858,125.40540152990624 156.41891288076494,124.72972586293835 143.5810752083746,124.72972586293835 134.79729153779175,124.72972586293835 130.0675618690164,124.72972586293835 128.71621053508056,124.72972586293835 " style="color: rgb(0, 0, 0);"/></g>
</svg>